# xmcd CD database file
#
# Track frame offsets:
#	150
#	16632
#	33945
#	47717
#	59812
#	74432
#	89082
#	101805
#	117387
#	133282
#	147077
#	157822
#	169052
#
# Disc length: 2485 seconds
#
# Revision: 2
# Processed by: cddbd v1.4PL0 Copyright (c) Steve Scherf et al.
# Submitted via: CDex 1.40Release
#
DISCID=b909b30d
DTITLE=Valerie Smith - Turtle Wings
DYEAR=2000
DGENRE=Bluegrass
TTITLE0=I Feel The Blues Moving In
TTITLE1=Oh Mandolin
TTITLE2=Sweeter Field Of Clover
TTITLE3=Big Ol' Train
TTITLE4=Times LIke These
TTITLE5=Simpson's Holler
TTITLE6=Dancin' By The River
TTITLE7=Turtle Wings
TTITLE8=Hand Me Down
TTITLE9=Someday Came Today
TTITLE10=Good Man
TTITLE11=Now He's Gone
TTITLE12=Mama's Roses
EXTD=YEAR: 2000 ID3G: 89
EXTT0=
EXTT1=
EXTT2=
EXTT3=
EXTT4=
EXTT5=
EXTT6=
EXTT7=
EXTT8=
EXTT9=
EXTT10=
EXTT11=
EXTT12=
PLAYORDER=
